<?xml version="1.0" encoding="UTF-8"?>
<svg xmlns="http://www.w3.org/2000/svg" xmlns:xlink="http://www.w3.org/1999/xlink" width="75pt" height="75pt" viewBox="0 0 75 75" version="1.1">
<g id="surface1">
<path style=" stroke:none;fill-rule:nonzero;fill:rgb(0%,67.45098%,94.117647%);fill-opacity:1;" d="M 73.058594 36.804688 C 73.058594 16.800781 56.820312 0.550781 36.804688 0.550781 C 16.800781 0.550781 0.566406 16.800781 0.566406 36.804688 C 0.566406 56.820312 16.800781 73.066406 36.804688 73.066406 C 56.820312 73.066406 73.058594 56.820312 73.058594 36.804688 Z M 73.058594 36.804688 "/>
<path style=" stroke:none;fill-rule:nonzero;fill:rgb(100%,100%,100%);fill-opacity:1;" d="M 53.023438 27.40625 C 55.617188 25.722656 55.847656 23.414062 55.847656 23.414062 C 55.003906 24.558594 51.28125 25.179688 51.28125 25.179688 C 48.101562 21.402344 43.308594 23.414062 43.308594 23.414062 C 37.679688 25.402344 38.527344 31.941406 38.527344 31.941406 C 28.714844 31.796875 23.394531 24.253906 23.394531 24.253906 C 20.472656 30.402344 25.414062 34.132812 25.414062 34.132812 C 24.308594 34.246094 22.332031 33.367188 22.332031 33.367188 C 22.261719 39.015625 28.105469 41.011719 28.105469 41.011719 C 27.582031 41.085938 25.066406 41.085938 25.066406 41.085938 C 26.363281 45.699219 31.824219 46.167969 31.824219 46.167969 C 26.519531 50.152344 21.207031 49.46875 21.207031 49.46875 C 26.4375 53.464844 31.636719 53.042969 35.179688 52.539062 C 43.886719 51.316406 48.546875 44.933594 48.546875 44.933594 C 54.699219 37.015625 52.652344 30.332031 53.644531 29.949219 C 53.652344 29.933594 53.664062 29.933594 53.699219 29.925781 C 54.710938 29.460938 57.050781 26.480469 57.050781 26.480469 C 55.398438 27.40625 53.023438 27.40625 53.023438 27.40625 Z M 53.023438 27.40625 "/>
</g>
</svg>
